<?xml version="1.0" encoding="UTF-8" standalone="no"?>
<svg viewBox="0 0 485 435" xmlns="http://www.w3.org/2000/svg" xmlns:xlink="http://www.w3.org/1999/xlink">

<style>
		
	circle, line, path, rect {
      	stroke: black;
      	fill: white;
      	stroke-width: 2;
    }
    text {
    	font: 12px sans-serif; 
    	text-anchor: middle; 
    	dominant-baseline: central;
    	
    }
    rect, path {
      	stroke-width: 3;
      	fill: white;
    }

</style>

<defs>
    <marker
      id="arrow"
      viewBox="0 0 10 10"
      refX="5"
      refY="5"
      markerWidth="5"
      markerHeight="5"
      orient="auto-start-reverse">
      <path d="M 0 0 L 10 5 L 0 10 z" style="stroke-width: 1; fill: black;" />
    </marker>
    <marker
      id="box"
      viewBox="0 0 10 10"
      refX="5"
      refY="5"
      markerWidth="5"
      markerHeight="5"
      >
      <path d="M 0 0 L 10 0 L 10 10 L 0 10 z" style="stroke-width: 4; fill: white;" />
    </marker>
    <marker
      id="openarrow"
      viewBox="0 0 10 10"
      refX="5"
      refY="5"
      markerWidth="5"
      markerHeight="5"
      orient="auto-start-reverse">
      <path d="M 0 0 L 10 5 L 0 10 z" style="stroke-width: 2; fill: white;" />
    </marker>
  </defs>

  
<g transform="translate(-40 -40)">  
  	<rect x="50" y="50" width="465" height="415" rx="30" />

	<g transform="translate(100 100)">
		<circle r="10" />
		<line x1="-7.07106781187" y1="7.07106781187" x2="7.07106781187" y2="-7.07106781187" />
	</g>
		
	<g transform = "translate(150,100)">
		<path d="m-40,0 h65" marker-mid="url(#box)" marker-end="url(#arrow)" style="stroke-width: 2;" />
	</g>
	
	<g transform="translate(200 100)">
		<circle r="20" />
		<g transform="translate(0 -20)">
			<rect x="-7.5" y="-7.5" width="15" height="15" rx="5" style="stroke-width: 2;"/>
			<text>1</text>
		</g>
		<g transform="translate(27.5 0)">
			<rect x="-7.5" y="-7.5" width="15" height="15" rx="5" style="stroke-width: 2;"/>
			<text>&#xFE61;</text>
		</g>
	</g>
	
	<g transform = "translate(200,150)">
		<path d="m0,-30 v55" marker-end="url(#arrow)" style="stroke-width: 2;" />
	</g>
	
	<g transform="translate(0 7.5)">  
		<g transform="translate(200 200)">
			<circle r="20" />
			<g transform="translate(0 -20)">
				<rect x="-7.5" y="-7.5" width="15" height="15" rx="5" style="stroke-width: 2;"/>
				<text>2</text>
			</g>
		</g>
		
		<g transform="translate(350 200)">
			<circle r="20" />
			<g transform="translate(0 -20)">
				<rect x="-7.5" y="-7.5" width="15" height="15" rx="5" style="stroke-width: 2;"/>
				<text>12</text>
			</g>
		</g>
		
		<g transform = "translate(350,250)">
			<path d="m-5,-30 v55" marker-end="url(#arrow)" style="stroke-width: 2;" />
			<path d="m5,-25 v55" marker-start="url(#arrow)" style="stroke-width: 2;" />
		</g>
								
		
		<line x1="216.256342551479314" y1="211.650378828560175" x2="329.6795718106509" y2="292.9370264642998" marker-end="url(#arrow)" />
	
		<g transform = "translate(150,200)">
			<path d="m-35,0 h65" marker-mid="url(#box)" marker-start="url(#arrow)" style="stroke-width: 2;" />
		</g>
	
		<g transform="translate(100 200)">
			<circle r="10" />
			<line x1="-7.07106781187" y1="7.07106781187" x2="7.07106781187" y2="-7.07106781187" />
		</g>
	
		<g transform = "translate(200,250)">
			<path d="m0,-30 v55" marker-end="url(#arrow)" style="stroke-width: 2;" />
		</g>
	
		<g transform="translate(0 7.5)"> 
			<g transform="translate(200 300)">
				<circle r="20" />
				<rect x="-20" y="-20" width="40" height="40" style="stroke-width: 2;"/>
				<text style="font-size:larger">\\</text>
				<g transform="translate(0 -20)">
					<rect x="-7.5" y="-7.5" width="15" height="15" rx="5" style="stroke-width: 2;"/>
					<text>3</text>
				</g>
			</g>
			
			<g transform = "translate(200,350)">
				<path d="m0,-30 v55" marker-end="url(#arrow)" style="stroke-width: 2;" />
			</g>
			
			<g transform="translate(350 300)">
				<circle r="20" />
				<g transform="translate(0 -20)">
					<rect x="-7.5" y="-7.5" width="15" height="15" rx="5" style="stroke-width: 2;"/>
					<text>11</text>
				</g>
			</g>
			
			<g transform = "translate(350,350)">
				<path d="m-5,-30 v55" marker-end="url(#arrow)" style="stroke-width: 2;" />
				<path d="m5,-25 v55" marker-start="url(#arrow)" style="stroke-width: 2;" />
			</g>
			
			<g transform="translate(0 7.5)"> 
				<g transform="translate(200 400)">
					<circle r="20" />
					<g transform="translate(0 -20)">
						<rect x="-7.5" y="-7.5" width="15" height="15" rx="5" style="stroke-width: 2;"/>
						<text>4</text>
					</g>
				</g>
				
				<line x1="216.256342551479314" y1="388.3496211714398" x2="329.6795718106509" y2="307.0629735357002" marker-end="url(#arrow)" />
				
				<g transform="translate(350 400)">
					<circle r="20" />
					<g transform="translate(0 -20)">
						<rect x="-7.5" y="-7.5" width="15" height="15" rx="5" style="stroke-width: 2;"/>
						<text>13</text>
					</g>
				</g>
				
				<g transform = "translate(350,400)">
					<path d="m20,0 h65" marker-mid="url(#box)" marker-end="url(#arrow)" style="stroke-width: 2;" />
				</g>
				
				<g transform="translate(450 400)">
					<circle r="10" />
					<line x1="-7.07106781187" y1="7.07106781187" x2="7.07106781187" y2="-7.07106781187" />
				</g>
			</g>
			
		</g>
	</g>
</g>
	
</svg>  